<svg viewBox="0 0 100 100" version="1.1" xmlns="http://www.w3.org/2000/svg">
<svg width="100" height="100" viewBox="0 0 64 64" fill="none" xmlns="http://www.w3.org/2000/svg" version="1.1">
<mask id="mask0_356_394" style="mask-type:alpha" maskUnits="userSpaceOnUse" x="28" y="10" width="36" height="42">
<path d="M64 10V52H28V13L39 10.5L64 10Z" fill="white"/>
</mask>
<g mask="url(#mask0_356_394)">
<path d="M52.1141 52H62.6663C63.6849 52 64.3078 50.8818 63.7716 50.0157L39 10H25L50.4136 51.0527C50.7782 51.6416 51.4215 52 52.1141 52Z" fill="url(#paint0_linear_356_394)"/>
<mask id="mask1_356_394" style="mask-type:alpha" maskUnits="userSpaceOnUse" x="25" y="10" width="40" height="42">
<path d="M52.1141 52H62.6663C63.6849 52 64.3078 50.8818 63.7716 50.0157L39 10H25L50.4136 51.0527C50.7782 51.6416 51.4215 52 52.1141 52Z" fill="url(#paint1_linear_356_394)"/>
</mask>
<g mask="url(#mask1_356_394)">
<g filter="url(#filter0_d_356_394)">
<path d="M36.4081 52H25.6946C24.7459 52 24.1724 50.9511 24.6844 50.1524L47.8007 14.0908C48.247 13.3947 48.9608 12.9136 49.7735 12.7612L63.2461 10.2351C63.7203 10.1462 64.071 10.6673 63.8102 11.0731L38.0905 51.0815C37.7225 51.654 37.0886 52 36.4081 52Z" fill="url(#paint2_linear_356_394)"/>
<path d="M11.9081 52H1.3775C0.349743 52 -0.271591 50.8637 0.283054 49.9984L23.3007 14.0908C23.747 13.3947 24.4608 12.9136 25.2735 12.7612L38.7461 10.2351C39.2203 10.1462 39.571 10.6673 39.3102 11.0731L13.5905 51.0815C13.2225 51.654 12.5886 52 11.9081 52Z" fill="url(#paint3_linear_356_394)"/>
</g>
</g>
</g>
<path d="M36.4081 52H25.6946C24.7459 52 24.1724 50.9511 24.6844 50.1524L47.8007 14.0908C48.247 13.3947 48.9608 12.9136 49.7735 12.7612L63.2461 10.2351C63.7203 10.1462 64.071 10.6673 63.8102 11.0731L38.0905 51.0815C37.7225 51.654 37.0886 52 36.4081 52Z" fill="url(#paint4_linear_356_394)"/>
<path d="M11.9081 52H1.3775C0.349743 52 -0.271591 50.8637 0.283054 49.9984L23.3007 14.0908C23.747 13.3947 24.4608 12.9136 25.2735 12.7612L38.7461 10.2351C39.2203 10.1462 39.571 10.6673 39.3102 11.0731L13.5905 51.0815C13.2225 51.654 12.5886 52 11.9081 52Z" fill="url(#paint5_linear_356_394)"/>
<defs>
<filter id="filter0_d_356_394" x="-1" y="6.2251" width="73" height="49.7749" filterUnits="userSpaceOnUse" color-interpolation-filters="sRGB">
<feFlood flood-opacity="0" result="BackgroundImageFix"/>
<feColorMatrix in="SourceAlpha" type="matrix" values="0 0 0 0 0 0 0 0 0 0 0 0 0 0 0 0 0 0 127 0" result="hardAlpha"/>
<feOffset dx="4"/>
<feGaussianBlur stdDeviation="2"/>
<feComposite in2="hardAlpha" operator="out"/>
<feColorMatrix type="matrix" values="0 0 0 0 0 0 0 0 0 0 0 0 0 0 0 0 0 0 0.125 0"/>
<feBlend mode="normal" in2="BackgroundImageFix" result="effect1_dropShadow_356_394"/>
<feBlend mode="normal" in="SourceGraphic" in2="effect1_dropShadow_356_394" result="shape"/>
</filter>
<linearGradient id="paint0_linear_356_394" x1="45" y1="12" x2="45" y2="52" gradientUnits="userSpaceOnUse">
<stop stop-color="#00A2AD"/>
<stop offset="1" stop-color="#0096AD"/>
</linearGradient>
<linearGradient id="paint1_linear_356_394" x1="45" y1="12" x2="45" y2="52" gradientUnits="userSpaceOnUse">
<stop stop-color="#00A2AD"/>
<stop offset="1" stop-color="#0096AD"/>
</linearGradient>
<linearGradient id="paint2_linear_356_394" x1="44" y1="12" x2="44" y2="52" gradientUnits="userSpaceOnUse">
<stop stop-color="#00D1E0"/>
<stop offset="1" stop-color="#009FB8"/>
</linearGradient>
<linearGradient id="paint3_linear_356_394" x1="19.5" y1="12" x2="19.5" y2="52" gradientUnits="userSpaceOnUse">
<stop stop-color="#00D1E0"/>
<stop offset="1" stop-color="#009FB8"/>
</linearGradient>
<linearGradient id="paint4_linear_356_394" x1="44" y1="12" x2="44" y2="52" gradientUnits="userSpaceOnUse">
<stop stop-color="#00D1E0"/>
<stop offset="1" stop-color="#009FB8"/>
</linearGradient>
<linearGradient id="paint5_linear_356_394" x1="19.5" y1="12" x2="19.5" y2="52" gradientUnits="userSpaceOnUse">
<stop stop-color="#00D1E0"/>
<stop offset="1" stop-color="#009FB8"/>
</linearGradient>
</defs>
</svg>
</svg>